HIERARCHY
ROOT Hips
{
 OFFSET 0.000000 0.000000 0.000000
 CHANNELS 6 Xposition Yposition Zposition Yrotation Xrotation Zrotation
 JOINT Chest
 {
  OFFSET 0.000000 10.366939 -0.000175
  CHANNELS 3 Yrotation Xrotation Zrotation
  JOINT Chest2
  {
   OFFSET 0.000000 11.433790 0.000318
   CHANNELS 3 Yrotation Xrotation Zrotation
   JOINT Chest3
   {
    OFFSET 0.000000 10.331133 0.000000
    CHANNELS 3 Yrotation Xrotation Zrotation
    JOINT Chest4
    {
     OFFSET 0.000000 10.331133 0.000000
     CHANNELS 3 Yrotation Xrotation Zrotation
     JOINT Neck
     {
      OFFSET 0.000000 14.530095 0.000000
      CHANNELS 3 Yrotation Xrotation Zrotation
      JOINT Head
      {
       OFFSET 0.000000 9.616255 0.000757
       CHANNELS 3 Yrotation Xrotation Zrotation
       End Site
       {
        OFFSET 0.000000 18.398191 0.000395
       }
      }
     }
     JOINT RightCollar
     {
      OFFSET -3.159467 8.107572 0.000000
      CHANNELS 3 Yrotation Xrotation Zrotation
      JOINT RightShoulder
      {
       OFFSET -14.759419 0.000000 0.000000
       CHANNELS 3 Yrotation Xrotation Zrotation
       JOINT RightElbow
       {
        OFFSET 0.000000 -31.561777 0.000000
        CHANNELS 3 Yrotation Xrotation Zrotation
        JOINT RightWrist
        {
         OFFSET 0.000000 -25.811607 0.000000
         CHANNELS 3 Yrotation Xrotation Zrotation
         End Site
         {
          OFFSET 0.000000 -19.296333 0.000000
         }
        }
       }
      }
     }
     JOINT LeftCollar
     {
      OFFSET 3.159467 8.107572 0.000000
      CHANNELS 3 Yrotation Xrotation Zrotation
      JOINT LeftShoulder
      {
       OFFSET 14.759419 0.000000 0.000000
       CHANNELS 3 Yrotation Xrotation Zrotation
       JOINT LeftElbow
       {
        OFFSET 0.000000 -31.561777 0.000000
        CHANNELS 3 Yrotation Xrotation Zrotation
        JOINT LeftWrist
        {
         OFFSET 0.000000 -25.811607 0.000000
         CHANNELS 3 Yrotation Xrotation Zrotation
         End Site
         {
          OFFSET 0.000000 -19.296333 0.000000
         }
        }
       }
      }
     }
    }
   }
  }
 }
 JOINT RightHip
 {
  OFFSET -8.420485 0.000859 0.000088
  CHANNELS 3 Yrotation Xrotation Zrotation
  JOINT RightKnee
  {
   OFFSET 0.000000 -43.611855 -0.000083
   CHANNELS 3 Yrotation Xrotation Zrotation
   JOINT RightAnkle
   {
    OFFSET 0.000000 -42.630478 -0.000140
    CHANNELS 3 Yrotation Xrotation Zrotation
    JOINT RightToe
    {
     OFFSET 0.000000 -7.539428 17.119853
     CHANNELS 3 Yrotation Xrotation Zrotation
     End Site
     {
      OFFSET 0.000000 -1.595212 6.940629
     }
    }
   }
  }
 }
 JOINT LeftHip
 {
  OFFSET 8.420485 0.000859 0.000088
  CHANNELS 3 Yrotation Xrotation Zrotation
  JOINT LeftKnee
  {
   OFFSET 0.000000 -43.611855 -0.000083
   CHANNELS 3 Yrotation Xrotation Zrotation
   JOINT LeftAnkle
   {
    OFFSET 0.000000 -42.630478 -0.000140
    CHANNELS 3 Yrotation Xrotation Zrotation
    JOINT LeftToe
    {
     OFFSET 0.000000 -7.539428 17.119853
     CHANNELS 3 Yrotation Xrotation Zrotation
     End Site
     {
      OFFSET 0.000000 -1.595212 6.940629
     }
    }
   }
  }
 }
}
MOTION
Frames: 15
Frame Time: 0.008333
407.049043 47.227225 121.931319 -78.447544 -21.126423 0.420285 0.420156 14.787815 -0.202539 0.038885 6.539564 -0.530856 0.038885 6.539564 -0.530856 0.034835 4.904644 -0.398126 -1.537831 11.663695 0.884323 -3.332892 -14.480208 2.363434 0.694559 3.674005 10.892449 4.179711 -28.504439 -24.561829 63.767550 -45.655213 -34.272777 20.563790 -8.035222 0.140075 0.838996 2.630782 -8.645249 -0.361121 -30.809892 13.784782 -53.572294 -27.652644 18.488988 -17.440925 -1.198568 -12.972308 -11.043506 -71.416604 -13.232236 164.426247 64.267825 158.711651 4.233438 -21.527670 -0.634872 -0.220444 0.963893 -0.098233 -7.535197 -74.607957 33.639995 -148.288540 62.766357 -146.614785 -1.143841 -13.482294 -2.185157 -0.618822 -1.040160 -0.266276
407.049174 47.228092 121.932470 -78.442587 -21.123840 0.430424 0.409611 14.785554 -0.212745 0.042832 6.540061 -0.531672 0.042832 6.540061 -0.531672 0.037801 4.905013 -0.398780 -1.535510 11.665613 0.885434 -3.328850 -14.476690 2.364481 0.694784 3.670221 10.874546 4.173752 -28.502440 -24.549532 63.733070 -45.656365 -34.235424 20.600169 -8.032018 0.132695 0.838473 2.627858 -8.640396 -0.372538 -30.809043 13.778709 -53.567557 -27.613397 18.488356 -17.447667 -1.213913 -12.966223 -11.006365 -71.417866 -13.274909 164.422636 64.266265 158.706801 4.245288 -21.538608 -0.634418 -0.226896 0.970797 -0.099733 -7.517648 -74.610076 33.614842 -148.305788 62.775933 -146.641530 -1.152013 -13.468491 -2.176089 -0.625671 -1.050139 -0.271083
407.049563 47.228026 121.933262 -78.444648 -21.120052 0.431964 0.411402 14.784958 -0.212066 0.044274 6.540832 -0.532267 0.044274 6.540832 -0.532267 0.038888 4.905590 -0.399241 -1.534081 11.664446 0.884530 -3.325764 -14.478941 2.362175 0.694593 3.659770 10.861218 4.166088 -28.498008 -24.541120 63.711401 -45.660977 -34.203732 20.634580 -8.025942 0.122216 0.837651 2.622483 -8.629488 -0.369471 -30.814747 13.764663 -53.573380 -27.549060 18.467134 -17.446374 -1.251231 -12.935249 -11.004374 -71.420113 -13.268856 164.424918 64.269391 158.709068 4.211860 -21.541144 -0.619797 -0.228762 0.973786 -0.100903 -7.527025 -74.611406 33.623873 -148.310917 62.778167 -146.652386 -1.150459 -13.468201 -2.172001 -0.622911 -1.051455 -0.273964
407.052147 47.227694 121.931497 -78.445371 -21.106357 0.432562 0.414391 14.773067 -0.209783 0.047159 6.540440 -0.533640 0.047159 6.540440 -0.533640 0.041064 4.905293 -0.400301 -1.533505 11.667018 0.884733 -3.324649 -14.474180 2.362212 0.685715 3.654777 10.846809 4.162676 -28.490566 -24.529030 63.686038 -45.666281 -34.169466 20.668236 -8.015180 0.115502 0.825666 2.622525 -8.619820 -0.360802 -30.819832 13.751205 -53.584594 -27.514496 18.463749 -17.465329 -1.260190 -12.923642 -11.020022 -71.430766 -13.245515 164.424992 64.273082 158.702423 4.240283 -21.545047 -0.628319 -0.227027 0.979051 -0.098890 -7.562285 -74.622502 33.652409 -148.309520 62.783954 -146.656890 -1.139577 -13.459053 -2.176470 -0.618098 -1.055525 -0.275580
407.052504 47.228318 121.932808 -78.443100 -21.110413 0.439646 0.406985 14.774473 -0.212648 0.046414 6.539575 -0.534842 0.046414 6.539575 -0.534842 0.040518 4.904645 -0.401194 -1.528006 11.669127 0.882972 -3.313264 -14.470530 2.356370 0.695513 3.656008 10.830020 4.166695 -28.491652 -24.531680 63.646294 -45.665699 -34.129730 20.694124 -8.018156 0.113302 0.827371 2.625441 -8.616624 -0.360525 -30.819043 13.743819 -53.594560 -27.457080 18.446342 -17.463290 -1.283518 -12.892565 -11.011251 -71.427980 -13.253842 164.422398 64.271003 158.699440 4.198503 -21.550620 -0.619409 -0.220714 0.981925 -0.096930 -7.554627 -74.610954 33.640055 -148.304010 62.787822 -146.660868 -1.165903 -13.462830 -2.164845 -0.619139 -1.054422 -0.277547
407.053090 47.229620 121.933331 -78.442047 -21.110281 0.446533 0.399793 14.772144 -0.217546 0.045639 6.539427 -0.536598 0.045639 6.539427 -0.536598 0.039956 4.904534 -0.402500 -1.523054 11.671243 0.882342 -3.303418 -14.466804 2.352932 0.712839 3.655573 10.818610 4.161713 -28.490366 -24.531811 63.611194 -45.665565 -34.092771 20.728179 -8.014938 0.107102 0.833751 2.625622 -8.607293 -0.365169 -30.817079 13.736238 -53.595474 -27.424765 18.451148 -17.478356 -1.289500 -12.895744 -10.998218 -71.426530 -13.264022 164.413225 64.271254 158.685894 4.183770 -21.555761 -0.612663 -0.224146 0.985457 -0.096946 -7.541898 -74.603997 33.618699 -148.304738 62.793579 -146.664355 -1.173426 -13.467239 -2.165045 -0.616399 -1.053632 -0.277764
407.053193 47.231477 121.934450 -78.439509 -21.120587 0.458525 0.384670 14.776807 -0.227804 0.044285 6.540676 -0.538649 0.044285 6.540676 -0.538649 0.038965 4.905473 -0.404023 -1.517084 11.670223 0.879313 -3.290699 -14.469025 2.344580 0.724057 3.650361 10.806100 4.177796 -28.483287 -24.533793 63.579072 -45.665101 -34.066014 20.751596 -8.010756 0.103256 0.843055 2.626722 -8.606346 -0.361179 -30.813429 13.736215 -53.610838 -27.378735 18.432294 -17.480459 -1.314189 -12.870315 -10.960381 -71.418482 -13.303730 164.423050 64.268638 158.691879 4.200734 -21.556452 -0.622847 -0.218717 0.982237 -0.091583 -7.487143 -74.591461 33.554341 -148.306935 62.797046 -146.665647 -1.185638 -13.468242 -2.159500 -0.620170 -1.056902 -0.279419
407.054999 47.231940 121.932748 -78.439664 -21.117358 0.455369 0.381060 14.771546 -0.226509 0.044408 6.540398 -0.538839 0.044408 6.540398 -0.538839 0.039059 4.905264 -0.404166 -1.512816 11.667829 0.876320 -3.281311 -14.473732 2.337088 0.732698 3.655909 10.797957 4.191311 -28.482535 -24.540448 63.556209 -45.668329 -34.041221 20.777390 -8.004479 0.098900 0.846658 2.636564 -8.600454 -0.351539 -30.819007 13.729487 -53.627594 -27.364481 18.440193 -17.486434 -1.312000 -12.876350 -10.990137 -71.417782 -13.266252 164.417525 64.272229 158.683150 4.170972 -21.560319 -0.614315 -0.219348 0.986062 -0.092262 -7.521279 -74.591398 33.590297 -148.294531 62.797250 -146.657871 -1.205413 -13.466035 -2.154452 -0.618953 -1.059781 -0.278594
407.055411 47.232433 121.929688 -78.443012 -21.120212 0.450734 0.387141 14.771475 -0.221232 0.044452 6.540500 -0.538344 0.044452 6.540500 -0.538344 0.039086 4.905340 -0.403796 -1.509085 11.665178 0.876860 -3.274493 -14.478766 2.336611 0.731944 3.653982 10.792293 4.204357 -28.480986 -24.545692 63.531855 -45.668331 -34.011310 20.797553 -7.999932 0.089151 0.841773 2.638510 -8.591607 -0.336419 -30.816303 13.715135 -53.651437 -27.324001 18.429758 -17.488203 -1.336910 -12.852435 -11.016443 -71.415093 -13.233138 164.413234 64.272838 158.676950 4.158415 -21.554275 -0.613636 -0.226700 0.980704 -0.092641 -7.548058 -74.584601 33.619056 -148.287110 62.797635 -146.646815 -1.180536 -13.473534 -2.177837 -0.598657 -1.055910 -0.268260
407.055632 47.233129 121.923104 -78.456435 -21.120737 0.445986 0.401196 14.771476 -0.214747 0.046771 6.540134 -0.539940 0.046771 6.540134 -0.539940 0.040841 4.905064 -0.405016 -1.506175 11.663596 0.880470 -3.270539 -14.481671 2.342331 0.725598 3.657024 10.797780 4.226456 -28.476428 -24.560462 63.507141 -45.669608 -33.994506 20.815423 -8.004076 0.087519 0.832969 2.643953 -8.578247 -0.320203 -30.817446 13.705827 -53.686611 -27.309573 18.439586 -17.486618 -1.338513 -12.852845 -11.046003 -71.409952 -13.186517 164.404806 64.274788 158.665200 4.207109 -21.555306 -0.634397 -0.229492 0.982178 -0.093199 -7.598457 -74.577103 33.677572 -148.287102 62.799119 -146.648616 -1.149779 -13.479461 -2.194437 -0.593589 -1.055596 -0.266308
407.055663 47.233745 121.920477 -78.458758 -21.125569 0.447842 0.405482 14.773863 -0.215203 0.045358 6.538885 -0.541185 0.045358 6.538885 -0.541185 0.039794 4.904128 -0.405934 -1.501290 11.662539 0.882273 -3.261995 -14.483741 2.343712 0.725098 3.666579 10.790745 4.231760 -28.477337 -24.557457 63.496637 -45.675320 -33.983885 20.831679 -8.005593 0.088396 0.829491 2.650361 -8.569493 -0.303679 -30.818097 13.684427 -53.720616 -27.263983 18.435117 -17.469292 -1.358450 -12.829396 -11.050028 -71.406280 -13.179342 164.401067 64.274461 158.661918 4.197146 -21.552698 -0.633471 -0.231277 0.979292 -0.096198 -7.612894 -74.563407 33.689436 -148.287330 62.802696 -146.650434 -1.151335 -13.493364 -2.204522 -0.588042 -1.049999 -0.262507
407.055161 47.234936 121.915404 -78.468717 -21.127134 0.450932 0.412205 14.773255 -0.216469 0.046450 6.538325 -0.542455 0.046450 6.538325 -0.542455 0.040626 4.903707 -0.406897 -1.497769 11.664069 0.883304 -3.255634 -14.480986 2.344102 0.721851 3.680038 10.787926 4.229182 -28.480754 -24.552457 63.499244 -45.686256 -33.979409 20.859457 -8.007116 0.082687 0.820973 2.658527 -8.558745 -0.294429 -30.816200 13.666331 -53.735117 -27.244970 18.453410 -17.468944 -1.363374 -12.830530 -11.059595 -71.403950 -13.153422 164.403566 64.275313 158.660330 4.199730 -21.552080 -0.635978 -0.234424 0.977493 -0.097416 -7.621421 -74.554504 33.704233 -148.274878 62.802804 -146.638621 -1.131859 -13.501348 -2.216442 -0.584392 -1.048428 -0.260776
407.056688 47.235395 121.912741 -78.470783 -21.124510 0.457766 0.408815 14.767903 -0.224517 0.046669 6.537011 -0.543338 0.046669 6.537011 -0.543338 0.040798 4.902722 -0.407561 -1.492470 11.664445 0.882711 -3.245205 -14.480498 2.340653 0.722582 3.687282 10.783176 4.229768 -28.484428 -24.542503 63.490917 -45.686017 -33.971861 20.875914 -8.010724 0.081827 0.817632 2.661153 -8.555815 -0.286335 -30.814681 13.659543 -53.750795 -27.201862 18.439902 -17.452263 -1.390821 -12.803352 -11.055774 -71.409722 -13.157786 164.394525 64.275033 158.652341 4.198313 -21.550722 -0.640598 -0.239162 0.978501 -0.099782 -7.604698 -74.550387 33.685594 -148.271487 62.809702 -146.635219 -1.144971 -13.510124 -2.217854 -0.583979 -1.044138 -0.259898
407.053691 47.236913 121.911531 -78.479004 -21.136644 0.460785 0.415377 14.776684 -0.224479 0.046746 6.535444 -0.545217 0.046746 6.535444 -0.545217 0.040874 4.901546 -0.408970 -1.485454 11.667983 0.884222 -3.232277 -14.474124 2.340371 0.715211 3.701965 10.777831 4.226082 -28.487055 -24.531715 63.496388 -45.691963 -33.971060 20.890291 -8.012556 0.076191 0.820893 2.666026 -8.549618 -0.290124 -30.812123 13.650300 -53.755891 -27.179226 18.442436 -17.449477 -1.402524 -12.801410 -11.058416 -71.397046 -13.151175 164.376122 64.272597 158.626711 4.193228 -21.551773 -0.630472 -0.256615 0.978254 -0.109262 -7.617469 -74.530356 33.706959 -148.249767 62.799268 -146.616946 -1.166733 -13.518004 -2.219441 -0.578210 -1.049739 -0.255705
407.051307 47.237620 121.909713 -78.491097 -21.145093 0.465370 0.423438 14.778210 -0.223664 0.046668 6.535321 -0.546448 0.046668 6.535321 -0.546448 0.040829 4.901454 -0.409891 -1.478324 11.671364 0.881849 -3.217454 -14.468187 2.332600 0.710180 3.704465 10.766812 4.216161 -28.480119 -24.517715 63.501529 -45.707658 -33.964249 20.906584 -8.016664 0.069716 0.818708 2.668143 -8.546704 -0.274570 -30.808945 13.637589 -53.767115 -27.136647 18.424263 -17.436501 -1.436125 -12.776752 -11.055538 -71.391039 -13.143437 164.373603 64.270833 158.623539 4.176294 -21.546524 -0.625221 -0.258402 0.973000 -0.112782 -7.613691 -74.517712 33.711574 -148.250822 62.793893 -146.618320 -1.160215 -13.527116 -2.226725 -0.577766 -1.052680 -0.253339
